<?xml version="1.0" encoding="UTF-8"?>
<svg  viewBox="0 0 24 24" version="1.1"   xmlns="http://www.w3.org/2000/svg" xmlns:xlink="http://www.w3.org/1999/xlink">
    <title>Icon/Tecnico</title>
    <g id="Icon/Tecnico" stroke="none" stroke-width="1" fill-rule="evenodd">
        <path  d="M8.25469565,14.4336522 L8.25495652,14.4346957 L9.60886957,14.4346957 L9.60886957,19.652087 L15.1734783,19.652087 L15.1734783,14.4346957 L16.5649565,14.4346957 L16.5649565,14.4388696 L19.6395652,15.7226087 C20.9817391,16.2829565 21.7826087,17.4918261 21.7826087,18.9566087 L21.7826087,18.9566087 L21.7826087,23.8262609 L20.3913913,23.8262609 L20.3913913,18.9568696 C20.3913913,18.045913 19.934087,17.3533043 19.1034783,17.0066087 L19.1034783,17.0066087 L18.6521739,16.818 L18.6521739,23.826 L17.2606957,23.826 L17.2606957,21.0435652 L7.52165217,21.0435652 L7.52165217,23.826 L6.13043478,23.826 L6.13069565,16.8508696 L5.77017391,17.0045217 C4.90695652,17.3723478 4.39121739,18.1066957 4.39121739,18.9691304 L4.39121739,18.9691304 L4.39121739,23.826 L3,23.826 L3,18.9691304 C3,17.5523478 3.85252174,16.3093043 5.22469565,15.7246957 L5.22469565,15.7246957 L8.21765217,14.4495652 L8.21765217,14.4346957 L8.25234783,14.4346957 L8.25469565,14.4336522 Z M16.5649565,15.9466957 L16.5649565,19.652087 L17.2609565,19.652087 L17.2609565,16.2370435 L16.5649565,15.9466957 Z M8.21765217,15.9615652 L7.52191304,16.2581739 L7.52191304,19.6518261 L8.21765217,19.6518261 L8.21765217,15.9615652 Z M12.3913043,17.2173913 C12.7745217,17.2173913 13.0873043,17.529913 13.0873043,17.9131304 C13.0873043,18.2963478 12.7745217,18.6086087 12.3913043,18.6086087 C12.008087,18.6086087 11.6958261,18.2963478 11.6958261,17.9131304 C11.6958261,17.529913 12.008087,17.2173913 12.3913043,17.2173913 Z M12.3913043,15.1304348 C12.7745217,15.1304348 13.0873043,15.4429565 13.0873043,15.8261739 C13.0873043,16.2093913 12.7745217,16.5216522 12.3913043,16.5216522 C12.008087,16.5216522 11.6958261,16.2093913 11.6958261,15.8261739 C11.6958261,15.4429565 12.008087,15.1304348 12.3913043,15.1304348 Z M12.3913043,0.174 C15.2681739,0.174 17.6086957,2.51452174 17.6086957,5.3913913 L17.6086957,5.3913913 L17.6086957,6.43721739 C18.1434783,6.804 18.4781739,7.41782609 18.4781739,8.08695652 C18.4781739,8.76756522 18.1314783,9.39104348 17.5810435,9.75573913 C17.307913,12.372 15.0631304,14.4346957 12.3913043,14.4346957 C9.71973913,14.4346957 7.47547826,12.372 7.20208696,9.756 C6.65113043,9.39156522 6.30443478,8.76808696 6.30443478,8.08695652 C6.30443478,7.41782609 6.6393913,6.804 7.17391304,6.43721739 L7.17391304,6.43721739 L7.17391304,5.3913913 C7.17391304,2.51452174 9.51417391,0.174 12.3913043,0.174 Z M16.6027826,7.75304348 C13.952087,6.43382609 11.1863478,6.43826087 8.14826087,7.76765217 L8.14826087,7.76765217 L8.04913043,7.54121739 C7.83756522,7.64034783 7.69565217,7.84956522 7.69565217,8.08695652 C7.69565217,8.34521739 7.85895652,8.57582609 8.10208696,8.6613913 L8.10208696,8.6613913 L8.55547826,8.82130435 L8.56617391,9.30234783 C8.61182609,11.3650435 10.3273043,13.0434783 12.3913043,13.0434783 C14.4550435,13.0434783 16.1710435,11.3650435 16.2164348,9.30208696 L16.2164348,9.30208696 L16.2271304,8.82156522 L16.6802609,8.66165217 C16.9236522,8.57582609 17.0869565,8.34469565 17.0869565,8.08695652 C17.0869565,7.84173913 16.9369565,7.62495652 16.7136522,7.53026087 L16.7136522,7.53026087 Z M12.3913043,1.56521739 C10.2816522,1.56521739 8.56513043,3.28173913 8.5653913,5.3913913 L8.5653913,5.3913913 L8.5653913,6.10878261 C11.2567826,5.14121739 13.7778261,5.12634783 16.2174783,6.06704348 L16.2174783,6.06704348 L16.2174783,5.3913913 C16.2174783,3.28173913 14.5009565,1.56521739 12.3913043,1.56521739 Z M10.3426957,3.51626087 C11.7268696,3.24130435 13.1045217,3.23191304 14.4373043,3.49121739 C14.8142609,3.564 15.0602609,3.92921739 14.9869565,4.30669565 C14.9141739,4.68365217 14.5513043,4.93173913 14.1714783,4.8566087 C13.0176522,4.63278261 11.8207826,4.6406087 10.6145217,4.88113043 C10.5688696,4.89 10.5229565,4.89443478 10.478087,4.89443478 C10.1527826,4.89443478 9.86243478,4.6653913 9.79617391,4.3346087 C9.72156522,3.95791304 9.966,3.5913913 10.3426957,3.51626087 Z" id="Combined-Shape" fill="#a0aec0">
        </path>
    </g>
</svg>